<svg xmlns="http://www.w3.org/2000/svg" version="1.1" xmlns:xlink="http://www.w3.org/1999/xlink" xmlns:svgjs="http://svgjs.dev/svgjs" width="128" height="128" viewBox="0 0 128 128"><g transform="matrix(0.8046875,0,0,0.8046875,12.760752631578946,15.474257511039397)"><svg viewBox="0 0 95 90" data-background-color="#ffffff" preserveAspectRatio="xMidYMid meet" height="121" width="128" xmlns="http://www.w3.org/2000/svg" xmlns:xlink="http://www.w3.org/1999/xlink"><g id="tight-bounds" transform="matrix(1,0,0,1,-0.24049999999999727,-0.14590760869565145)"><svg viewBox="0 0 95.481 90.2918152173913" height="90.2918152173913" width="95.481"><g><svg viewBox="0 0 95.481 90.2918152173913" height="90.2918152173913" width="95.481"><g><svg viewBox="0 0 95.481 90.2918152173913" height="90.2918152173913" width="95.481"><g id="textblocktransform"><svg viewBox="0 0 95.481 90.2918152173913" height="90.2918152173913" width="95.481" id="textblock"><g><svg viewBox="0 0 95.481 90.2918152173913" height="90.2918152173913" width="95.481"><g><svg viewBox="0 0 95.481 90.2918152173913" height="90.2918152173913" width="95.481"><g><svg xmlns="http://www.w3.org/2000/svg" xmlns:xlink="http://www.w3.org/1999/xlink" version="1.1" x="0" y="0" viewBox="4 8 92 87" style="enable-background:new 0 0 100 100;" xml:space="preserve" height="90.2918152173913" width="95.481" class="icon-icon-0" data-fill-palette-color="accent" id="icon-0"><g fill="#000000" data-fill-palette-color="accent"><g fill="#000000" data-fill-palette-color="accent"><path d="M52.1 60.8c-1.1 0-1.9-1.2-1.9-2.8 0-1.5 0.9-2.8 1.9-2.8S54 56.5 54 58C54 59.6 53.2 60.8 52.1 60.8zM52.1 57c-0.4 0-0.8 0.5-0.8 1.1 0 0.6 0.3 1.1 0.8 1.1 0.4 0 0.8-0.5 0.8-1.1C52.9 57.4 52.5 57 52.1 57z" fill="#000000" data-fill-palette-color="accent"></path></g></g><path d="M76 92V8H23v84H4v3h92v-3H76zM29 92V14h39.5L47 22v70H29zM48 92V23.2l23-8.4V92H48zM74 92h-2V13H28v79h-3V10h49V92z" fill="#000000" data-fill-palette-color="accent"></path></svg></g></svg></g></svg></g></svg></g></svg></g></svg></g><defs></defs></svg><rect width="95.481" height="90.2918152173913" fill="none" stroke="none" visibility="hidden"></rect></g></svg></g></svg>